<svg width="1000" height="1000" viewBox="0 0 1000 1000" fill="none" xmlns="http://www.w3.org/2000/svg">
<rect width="1000" height="1000" rx="80" fill="black"/>
<g clip-path="url(#clip0_131_3023)">
<path d="M120 191.25C120 151.9 151.9 120 191.25 120H405C444.35 120 476.25 151.9 476.25 191.25V405C476.25 444.35 444.35 476.25 405 476.25H191.25C151.9 476.25 120 444.35 120 405V191.25Z" fill="#033A16"/>
<path d="M523.75 191.25C523.75 151.9 555.65 120 595 120H808.75C848.1 120 880 151.9 880 191.25V405C880 444.35 848.1 476.25 808.75 476.25H595C555.65 476.25 523.75 444.35 523.75 405V191.25Z" fill="#033A16"/>
<path d="M120 595C120 555.65 151.9 523.75 191.25 523.75H405C444.35 523.75 476.25 555.65 476.25 595V808.75C476.25 848.1 444.35 880 405 880H191.25C151.9 880 120 848.1 120 808.75V595Z" fill="#56D364"/>
<path d="M523.75 595C523.75 555.65 555.65 523.75 595 523.75H808.75C848.1 523.75 880 555.65 880 595V808.75C880 848.1 848.1 880 808.75 880H595C555.65 880 523.75 848.1 523.75 808.75V595Z" fill="#033A16"/>
</g>
<defs>
<clipPath id="clip0_131_3023">
<rect width="760" height="760" fill="white" transform="translate(120 120)"/>
</clipPath>
</defs>
</svg>
