<svg width="100" height="100" viewBox="0 0 100 100" fill="none" xmlns="http://www.w3.org/2000/svg">
<g clip-path="url(#clip0_118_3078)">
<path d="M0 9.375C0 4.19733 4.19733 0 9.375 0H37.5C42.6777 0 46.875 4.19733 46.875 9.375V37.5C46.875 42.6777 42.6777 46.875 37.5 46.875H9.375C4.19733 46.875 0 42.6777 0 37.5V9.375Z" fill="#033A16"/>
<path d="M53.125 9.375C53.125 4.19733 57.3223 0 62.5 0H90.625C95.8027 0 100 4.19733 100 9.375V37.5C100 42.6777 95.8027 46.875 90.625 46.875H62.5C57.3223 46.875 53.125 42.6777 53.125 37.5V9.375Z" fill="#033A16"/>
<path d="M0 62.5C0 57.3223 4.19733 53.125 9.375 53.125H37.5C42.6777 53.125 46.875 57.3223 46.875 62.5V90.625C46.875 95.8027 42.6777 100 37.5 100H9.375C4.19733 100 0 95.8027 0 90.625V62.5Z" fill="#56D364"/>
<path d="M53.125 62.5C53.125 57.3223 57.3223 53.125 62.5 53.125H90.625C95.8027 53.125 100 57.3223 100 62.5V90.625C100 95.8027 95.8027 100 90.625 100H62.5C57.3223 100 53.125 95.8027 53.125 90.625V62.5Z" fill="#033A16"/>
</g>
<defs>
<clipPath id="clip0_118_3078">
<rect width="100" height="100" fill="white"/>
</clipPath>
</defs>
</svg>
