<svg width="1000" height="1000" viewBox="0 0 1000 1000" fill="none" xmlns="http://www.w3.org/2000/svg">
<rect width="1000" height="1000" rx="80" fill="black"/>
<g clip-path="url(#clip0_131_3023)">
<path d="M200 256.25C200 225.184 225.184 200 256.25 200H425C456.066 200 481.25 225.184 481.25 256.25V425C481.25 456.066 456.066 481.25 425 481.25H256.25C225.184 481.25 200 456.066 200 425V256.25Z" fill="#033A16"/>
<path d="M518.75 256.25C518.75 225.184 543.934 200 575 200H743.75C774.816 200 800 225.184 800 256.25V425C800 456.066 774.816 481.25 743.75 481.25H575C543.934 481.25 518.75 456.066 518.75 425V256.25Z" fill="#033A16"/>
<path d="M200 575C200 543.934 225.184 518.75 256.25 518.75H425C456.066 518.75 481.25 543.934 481.25 575V743.75C481.25 774.816 456.066 800 425 800H256.25C225.184 800 200 774.816 200 743.75V575Z" fill="#56D364"/>
<path d="M518.75 575C518.75 543.934 543.934 518.75 575 518.75H743.75C774.816 518.75 800 543.934 800 575V743.75C800 774.816 774.816 800 743.75 800H575C543.934 800 518.75 774.816 518.75 743.75V575Z" fill="#033A16"/>
</g>
<defs>
<clipPath id="clip0_131_3023">
<rect width="600" height="600" fill="white" transform="translate(200 200)"/>
</clipPath>
</defs>
</svg>
